PathFileType	4	(X/Y/Z)	C:/Users/beibeiliu/ov580/test_trc/capture2\sequence.32_training_dense_left.trc
DataRate	CameraRate	NumFrames	NumMarkers	Units	OrigDataRate	OrigDataStartFrame	OrigNumFrames
120	120	8	19	mm	120	246	327
Frame#	Time	ThumbCMC			ThumbMCP			ThumbIP			ThumbTip			IndexMCP			IndexPIP			IndexTip			MiddleMCP			MiddlePIP			MiddleTip			RingMCP			RingPIP			RingTip			PinkyMCP			PinkyPIP			PinkyTip			BackHand1			BackHand2			BackHand3	
		X0	Y0	Z0	X1	Y1	Z1	X2	Y2	Z2	X3	Y3	Z3	X4	Y4	Z4	X5	Y5	Z5	X6	Y6	Z6	X7	Y7	Z7	X8	Y8	Z8	X9	Y9	Z9	X10	Y10	Z10	X11	Y11	Z11	X12	Y12	Z12	X13	Y13	Z13	X14	Y14	Z14	X15	Y15	Z15	X16	Y16	Z16	X17	Y17	Z17	X18	Y18	Z18	
245	2.04167	-160.471	68.7969	48.0113	-154.549	93.367	27.0344	-153.459	107.624	10.8412	-147.494	118.189	-8.88557	-134.147	56.4531	-25.3614	-111.105	73.538	-33.7188	-95.3399	89.3625	-9.45446	-129.883	29.7976	-25.2117	-108.983	33.3312	-49.1977	-81.7396	51.0178	-59.6718	-118.13	14.5356	-18.0862	-98.9145	15.2594	-42.8445	-78.6883	26.8048	-57.4679	-99.3451	2.40254	3.92132	-87.3576	-2.18193	-16.2819	-70.8027	-8.39559	-36.9268	-134.811	10.9187	27.3123	-144.575	10.7034	55.9043	-162.23	34.1008	36.4633	
246	2.05	-160.483	70.9965	45.3552	-152.253	92.4236	26.4882	-149.803	105.984	11.6557	-142.733	117.436	-9.47759	-133.496	54.5225	-26.6789	-110.261	72.4427	-34.5413	-96.5543	82.1499	-6.70052	-129.088	27.8887	-26.6077	-107.017	35.0617	-51.2852	-84.6002	53.657	-59.0014	-114.718	9.98574	-14.3948	-100.086	16.4657	-43.2429	-75.5315	29.23	-56.5971	-99.2515	2.51865	0.140837	-83.7419	-2.49443	-19.3875	-69.0231	-5.11459	-33.7971	-136.782	11.876	26.3677	-144.894	10.9085	58.699	-160.19	32.9896	33.1158	
247	2.05833	-158.207	67.9676	44.9551	-148.288	89.3213	30.7169	-146.558	106.494	7.66827	-138.855	116.127	-8.96472	-138.013	54.0127	-26.6703	-112.808	68.7684	-37.2081	-98.7562	83.1314	-10.9511	-128.468	26.8067	-26.838	-109.397	33.3299	-50.0919	-80.399	54.7554	-55.9053	-115.316	9.98894	-14.2924	-95.6431	11.848	-40.675	-73.6174	29.5382	-55.1339	-98.2769	0.545498	3.61431	-83.2139	-2.70647	-17.0596	-66.9858	-4.76517	-35.9864	-134.021	7.80708	28.3463	-144.984	8.81696	56.6889	-160.481	30.1165	38.1545	
248	2.06667	-159.471	69.4996	45.1978	-149.147	89.8557	31.2013	-145.537	106.501	12.2347	-135.271	116.844	-10.1364	-137.249	48.9917	-23.3674	-114.304	65.9198	-38.4733	-98.1251	78.5942	-11.6698	-127.024	23.1377	-24.3811	-108.866	33.5313	-51.6659	-83.9189	52.186	-55.8238	-115.699	10.5413	-13.9431	-98.8577	13.6159	-40.4403	-78.0915	28.9096	-53.8656	-97.9286	0.854926	5.12895	-80.4755	-3.14828	-14.5545	-59.5077	-4.38573	-34.6352	-135.012	9.92977	28.3229	-146.786	8.47876	57.2904	-158.827	31.1857	38.4107	
249	2.075	-159.306	68.4979	43.866	-149.035	90.2502	30.5574	-143.451	107.709	8.63709	-133.969	117.957	-7.94182	-136.574	47.5178	-26.5909	-115.697	61.7585	-39.395	-100.088	78.5867	-15.3776	-127.749	23.789	-22.9002	-108.02	28.7811	-48.1864	-80.0085	50.4205	-52.2049	-114.444	8.9033	-13.1622	-95.5807	12.3882	-40.3991	-73.0654	32.3536	-52.0599	-97.4691	0.0460981	3.86529	-78.7764	-4.29725	-11.5833	-58.8007	-4.39511	-30.7339	-133.937	4.76396	30.675	-144.94	9.18165	58.7143	-162.27	31.032	38.7096	
250	2.08333	-156.186	64.5899	44.334	-147.476	91.1622	30.3832	-140.595	106.333	9.38215	-130.722	114.268	-6.42652	-139.703	48.5176	-25.3092	-113.587	58.1012	-39.5377	-98.0972	77.2287	-10.5611	-126.705	20.9506	-26.8622	-108.652	30.3407	-49.3402	-81.5709	48.5545	-51.8929	-115.723	9.67924	-13.1688	-93.9695	8.93078	-37.3098	-74.6173	28.5685	-49.1774	-98.3456	0.533627	5.58598	-78.0287	-3.93515	-11.6956	-59.504	-3.7708	-28.9187	-137.501	7.57052	30.7259	-146.055	8.48852	59.1006	-159.613	29.462	38.9482	
251	2.09167	-159.082	67.5493	46.4575	-147.414	90.023	32.8392	-139.455	105.446	10.5874	-126.645	111.011	-10.0997	-136.818	46.1274	-26.4024	-113.377	59.5508	-39.18	-99.5229	75.4698	-15.5642	-128.308	22.9895	-26.2043	-108.214	27.3044	-48.33	-81.9862	49.1204	-51.6704	-115.127	6.62243	-15.6494	-97.2542	9.96526	-38.7959	-72.6641	29.5101	-47.8638	-98.2754	1.24324	6.30441	-79.0536	-4.85666	-11.9773	-57.7659	-1.57434	-32.519	-137.332	7.55597	28.352	-147.286	6.76564	59.0382	-159.475	26.2272	36.9084	
252	2.1	-156.941	65.0209	46.3902	-147.54	91.3915	27.5119	-140.528	105.835	10.7205	-126.246	113.355	-9.6065	-138.979	46.4712	-24.0528	-111.091	58.6106	-38.4041	-97.7848	75.0068	-13.177	-127.268	21.0043	-27.3593	-109.575	28.7196	-49.6517	-80.1406	53.0742	-52.0117	-115.485	7.31433	-14.8016	-98.3434	8.94894	-37.1878	-72.8352	26.8111	-46.6479	-95.196	-3.5369	5.10707	-77.9553	-2.50956	-16.2303	-58.6502	1.39223	-32.8907	-136.522	8.32601	30.6537	-147.613	6.71328	57.9206	-161.065	28.1586	36.1345	
